<svg width="24" height="24" viewBox="0 0 24 24" xmlns="http://www.w3.org/2000/svg" fill="currentColor">
  <!-- Top layer — shortened to make room for SCM icon -->
  <rect x="4" y="4" width="10" height="3.5" rx="0.8" opacity="0.6"/>
  <!-- Middle layer -->
  <rect x="4" y="9" width="16" height="3.5" rx="0.8" opacity="0.6"/>
  <!-- Bottom layer with wavy top edge -->
  <path d="M4 14.5 C7 14.5 7.5 16 10.5 16 C13.5 16 14 14.5 17 14.5 C18.5 14.5 19.5 15 20 15.3 L20 19.2 C20 19.64 19.64 20 19.2 20 L4.8 20 C4.36 20 4 19.64 4 19.2 Z" opacity="0.55"/>

  <!-- SCM source-control codicon (upper right) — scaled to fit -->
  <g transform="translate(13.5, 2) scale(0.42)">
    <path d="M21 8.25C21 6.18 19.32 4.5 17.25 4.5C15.18 4.5 13.5 6.18 13.5 8.25C13.5 10.02 14.74 11.5 16.4 11.89C16.12 12.82 15.27 13.5 14.25 13.5H9.75C8.9 13.5 8.13 13.79 7.5 14.27V7.42C9.21 7.08 10.5 5.56 10.5 3.75C10.5 1.68 8.82 0 6.75 0C4.68 0 3 1.68 3 3.75C3 5.56 4.29 7.08 6 7.42V16.58C4.29 16.92 3 18.44 3 20.25C3 22.32 4.68 24 6.75 24C8.82 24 10.5 22.32 10.5 20.25C10.5 18.48 9.26 17 7.6 16.61C7.88 15.68 8.73 15 9.75 15H14.25C16.08 15 17.61 13.67 17.93 11.93C19.67 11.61 21 10.08 21 8.25ZM4.5 3.75C4.5 2.51 5.51 1.5 6.75 1.5C7.99 1.5 9 2.51 9 3.75C9 4.99 7.99 6 6.75 6C5.51 6 4.5 4.99 4.5 3.75ZM9 20.25C9 21.49 7.99 22.5 6.75 22.5C5.51 22.5 4.5 21.49 4.5 20.25C4.5 19.01 5.51 18 6.75 18C7.99 18 9 19.01 9 20.25ZM17.25 10.5C16.01 10.5 15 9.49 15 8.25C15 7.01 16.01 6 17.25 6C18.49 6 19.5 7.01 19.5 8.25C19.5 9.49 18.49 10.5 17.25 10.5Z"/>
  </g>
</svg>
