<?xml version="1.0" encoding="UTF-8"?>
<svg version="1.1" xmlns="http://www.w3.org/2000/svg" width="24" height="24">
<path d="M0 0 C7.41893738 -0.27946967 14.83651473 -0.47175458 22.25952148 -0.60424805 C24.7828238 -0.65948629 27.30577526 -0.73449666 29.82788086 -0.82983398 C33.46035172 -0.96368069 37.08816547 -1.02572373 40.72265625 -1.07421875 C42.40742821 -1.15937996 42.40742821 -1.15937996 44.12623596 -1.2462616 C47.42332494 -1.2488445 49.89565997 -1.12473204 53 0 C55.35658801 2.57804497 56.89209243 5.08963443 58.47312927 8.19816589 C62.51402834 15.61328535 70.03537033 20.60687184 78 23 C87.37912877 25.37258593 95.55926088 24.84002412 105 23 C105.495 26.465 105.495 26.465 106 30 C105.38125 30.226875 104.7625 30.45375 104.125 30.6875 C101.36681217 32.3910866 101.05034149 33.99902431 100 37 C99.01 37.99 99.01 37.99 98 39 C100.31 39.33 102.62 39.66 105 40 C105 50.23 105 60.46 105 71 C69.69 71 34.38 71 -2 71 C-2 39 -2 39 -1 31 C-0.86220677 28.48072682 -0.7571511 25.95946623 -0.68359375 23.4375 C-0.66281265 22.76074219 -0.64203156 22.08398438 -0.62062073 21.38671875 C-0.55605087 19.25789998 -0.49667844 17.12897475 -0.4375 15 C-0.39422635 13.54295843 -0.3506095 12.08592701 -0.30664062 10.62890625 C-0.20046698 7.08604588 -0.09894889 3.54307037 0 0 Z M12.0625 26.3125 C11.31613281 26.43012695 10.56976563 26.54775391 9.80078125 26.66894531 C6.86429813 27.19274317 4.46830833 27.66942941 2.0078125 29.40625 C0.44488033 31.87786366 0.81056149 34.15842241 1 37 C4.63190525 37.91922558 7.06704855 37.95449528 10.6875 37.0625 C25.13917011 34.2227371 39.62257113 35.89678172 53.64453125 40.08984375 C62.02239102 42.51433252 69.69421824 43.36766447 78.4375 43.375 C79.44417725 43.37653076 80.45085449 43.37806152 81.48803711 43.37963867 C87.59943641 43.2889681 93.08213739 42.52995414 99 41 C98.01 40.67 97.02 40.34 96 40 C96 38.35 96 36.7 96 35 C92.40861734 34.25204262 88.98694722 33.93987846 85.33203125 33.9296875 C71.49373228 33.83849607 59.25800958 31.40783751 45.9765625 27.59375 C40.98073586 26.18418501 36.1763959 25.31652831 31 25 C30.22615967 24.95206299 29.45231934 24.90412598 28.6550293 24.85473633 C23.02892761 24.58130281 17.59583087 25.39726472 12.0625 26.3125 Z M90 33 C90 33.33 90 33.66 90 34 C91.65 34 93.3 34 95 34 C95 33.67 95 33.34 95 33 C93.35 33 91.7 33 90 33 Z " fill="currentColor" opacity="0.56" transform="translate(14,49)"/>
<path d="M0 0 C7.41893738 -0.27946967 14.83651473 -0.47175458 22.25952148 -0.60424805 C24.7828238 -0.65948629 27.30577526 -0.73449666 29.82788086 -0.82983398 C33.46035172 -0.96368069 37.08816547 -1.02572373 40.72265625 -1.07421875 C42.40742821 -1.15937996 42.40742821 -1.15937996 44.12623596 -1.2462616 C47.42332494 -1.2488445 49.89565997 -1.12473204 53 0 C55.35658801 2.57804497 56.89209243 5.08963443 58.47312927 8.19816589 C62.51402834 15.61328535 70.03537033 20.60687184 78 23 C87.37912877 25.37258593 95.55926088 24.84002412 105 23 C105.495 26.465 105.495 26.465 106 30 C105.38125 30.226875 104.7625 30.45375 104.125 30.6875 C101.36681217 32.3910866 101.05034149 33.99902431 100 37 C99.01 37.99 99.01 37.99 98 39 C99.485 39.495 99.485 39.495 101 40 C100.01 40.495 100.01 40.495 99 41 C97.515 40.505 97.515 40.505 96 40 C96 38.35 96 36.7 96 35 C95.26289795 35.00636475 94.5257959 35.01272949 93.76635742 35.01928711 C76.78048166 35.06258161 62.12769888 33.43113369 45.765625 28.59375 C40.83972072 27.15056348 36.11754355 26.31084339 31 26 C30.2255957 25.95214355 29.45119141 25.90428711 28.65332031 25.85498047 C22.99484218 25.57911362 17.55906533 26.42833072 12 27.375 C11.24525391 27.50100586 10.49050781 27.62701172 9.71289062 27.75683594 C5.41955542 28.46749579 5.41955542 28.46749579 2 31 C2 32.155 2 33.31 2 34.5 C2 35.655 2 36.81 2 38 C1.34 38.66 0.68 39.32 0 40 C-0.37346668 43.20538403 -0.37346668 43.20538403 -0.4140625 46.9765625 C-0.43342865 47.66181 -0.4527948 48.3470575 -0.4727478 49.05307007 C-0.53256831 51.24358644 -0.57893756 53.4341553 -0.625 55.625 C-0.66317763 57.10939802 -0.70222924 58.59377384 -0.7421875 60.078125 C-0.83827084 63.71854685 -0.92229282 67.35913436 -1 71 C-1.33 71 -1.66 71 -2 71 C-2.02490464 66.58919646 -2.04295604 62.17843129 -2.05493164 57.76757812 C-2.05992943 56.27017503 -2.0667299 54.77277673 -2.07543945 53.27539062 C-2.08770623 51.11066495 -2.09327397 48.94600435 -2.09765625 46.78125 C-2.10289307 45.48251953 -2.10812988 44.18378906 -2.11352539 42.84570312 C-2.01426213 39.48313357 -1.69303758 36.29980814 -1.23927307 32.97692871 C-0.85511322 29.80291235 -0.7767547 26.63158974 -0.68359375 23.4375 C-0.66281265 22.76074219 -0.64203156 22.08398438 -0.62062073 21.38671875 C-0.55605087 19.25789998 -0.49667844 17.12897475 -0.4375 15 C-0.39422635 13.54295843 -0.3506095 12.08592701 -0.30664062 10.62890625 C-0.20046698 7.08604588 -0.09894889 3.54307037 0 0 Z M90 33 C90 33.33 90 33.66 90 34 C91.65 34 93.3 34 95 34 C95 33.67 95 33.34 95 33 C93.35 33 91.7 33 90 33 Z " fill="currentColor" opacity="0.81" transform="translate(14,49)"/>
<path d="M0 0 C19.8 0 39.6 0 60 0 C57.69 4.62 55.38 9.24 53 14 C51.80592982 19.91843481 51 25.02146423 51 31 C34.17 31 17.34 31 0 31 C0 20.77 0 10.54 0 0 Z " fill="currentColor" opacity="0.81" transform="translate(14,8)"/>
<path d="M0 0 C2.8100346 1.79363911 4.50940468 3.01880935 6 6 C6.5764282 13.03242409 6.5764282 13.03242409 4.25 16.9375 C2 19 2 19 -2 20 C-2 25.61 -2 31.22 -2 37 C-1.01 36.505 -1.01 36.505 0 36 C3.59774302 35.80074039 7.18895176 35.65401191 10.79101562 35.5703125 C15.11986726 35.52805598 15.11986726 35.52805598 18.74633789 33.47021484 C19.16004639 32.98504395 19.57375488 32.49987305 20 32 C19.195625 31.38125 18.39125 30.7625 17.5625 30.125 C15 28 15 28 14 26 C13.4188862 18.91041162 13.4188862 18.91041162 15.875 15.0625 C19.1301946 11.90304642 21.42413238 11.66578757 25.9609375 11.70703125 C29.13134567 12.16254967 30.8192402 13.75315657 33 16 C34.60331444 19.20662888 34.48652213 22.52103353 34 26 C32.25 28.9375 32.25 28.9375 30 31 C28.948125 31.2475 28.948125 31.2475 27.875 31.5 C26.946875 31.7475 26.946875 31.7475 26 32 C25.30341637 33.65438613 24.63903117 35.32254318 24 37 C21.52318614 39.64784705 19.4933758 40.20363668 15.99609375 40.40625 C13.70094762 40.47416555 11.4072806 40.50035522 9.11132812 40.52734375 C4.745928 40.58072259 4.745928 40.58072259 0.97265625 42.53125 C0.49119141 43.25828125 0.49119141 43.25828125 0 44 C0.804375 44.61875 1.60875 45.2375 2.4375 45.875 C5 48 5 48 6 50 C6.5811138 57.08958838 6.5811138 57.08958838 4.125 60.9375 C0.8698054 64.09695358 -1.42413238 64.33421243 -5.9609375 64.29296875 C-9.13134567 63.83745033 -10.8192402 62.24684343 -13 60 C-14.60331444 56.79337112 -14.48652213 53.47896647 -14 50 C-12.25 47.0625 -12.25 47.0625 -10 45 C-8.02 44.505 -8.02 44.505 -6 44 C-6 36.08 -6 28.16 -6 20 C-8.475 19.01 -8.475 19.01 -11 18 C-13.86523113 15.43117209 -14.00454016 13.95913856 -14.4375 10.0625 C-14.29259728 5.97471813 -12.96315444 3.87600284 -10 1 C-6.79826746 -0.60086627 -3.47422941 -0.49917089 0 0 Z M-7.125 5.125 C-9.30990066 6.92494943 -9.30990066 6.92494943 -9.375 10.0625 C-9.28930236 13.11861241 -9.28930236 13.11861241 -7 15 C-4 15.33333333 -4 15.33333333 -1 15 C1.28930236 13.11861241 1.28930236 13.11861241 1.375 10.0625 C1.30990066 6.92494943 1.30990066 6.92494943 -0.875 5.125 C-3.64039303 3.66096839 -4.35960697 3.66096839 -7.125 5.125 Z M20.875 17.125 C18.69009934 18.92494943 18.69009934 18.92494943 18.625 22.0625 C18.71069764 25.11861241 18.71069764 25.11861241 21 27 C24 27.33333333 24 27.33333333 27 27 C29.28930236 25.11861241 29.28930236 25.11861241 29.375 22.0625 C29.30990066 18.92494943 29.30990066 18.92494943 27.125 17.125 C24.35960697 15.66096839 23.64039303 15.66096839 20.875 17.125 Z M-7.125 49.125 C-9.30990066 50.92494943 -9.30990066 50.92494943 -9.375 54.0625 C-9.28930236 57.11861241 -9.28930236 57.11861241 -7 59 C-4 59.33333333 -4 59.33333333 -1 59 C1.28930236 57.11861241 1.28930236 57.11861241 1.375 54.0625 C1.30990066 50.92494943 1.30990066 50.92494943 -0.875 49.125 C-3.64039303 47.66096839 -4.35960697 47.66096839 -7.125 49.125 Z " fill="currentColor" opacity="0.66" transform="translate(94,2)"/>
<path d="M0 0 C34.32 0 68.64 0 104 0 C104 0.33 104 0.66 104 1 C69.68 1 35.36 1 0 1 C0 0.67 0 0.34 0 0 Z " fill="currentColor" opacity="0.33" transform="translate(14,121)"/>
<path d="M0 0 C20.13 0 40.26 0 61 0 C61 0.33 61 0.66 61 1 C40.87 1 20.74 1 0 1 C0 0.67 0 0.34 0 0 Z " fill="currentColor" opacity="0.75" transform="translate(15,6)"/>
<path d="M0 0 C17.16 0 34.32 0 52 0 C52 0.33 52 0.66 52 1 C34.84 1 17.68 1 0 1 C0 0.67 0 0.34 0 0 Z " fill="currentColor" opacity="0.95" transform="translate(15,47)"/>
<path d="M0 0 C16.5 0 33 0 50 0 C50 0.33 50 0.66 50 1 C33.5 1 17 1 0 1 C0 0.67 0 0.34 0 0 Z " fill="currentColor" opacity="0.67" transform="translate(15,40)"/>
<path d="M0 0 C0.99 0.66 1.98 1.32 3 2 C1.02 4.97 1.02 4.97 -1 8 C-0.01 8.33 0.98 8.66 2 9 C1.01 9.495 1.01 9.495 0 10 C-0.99 9.67 -1.98 9.34 -3 9 C-3 7.35 -3 5.7 -3 4 C-4.98 4 -6.96 4 -9 4 C-9 3.67 -9 3.34 -9 3 C-7.56879256 2.44191911 -6.12969645 1.90403538 -4.6875 1.375 C-3.88699219 1.07335937 -3.08648437 0.77171875 -2.26171875 0.4609375 C-1.51535156 0.30882813 -0.76898438 0.15671875 0 0 Z " fill="currentColor" opacity="0.94" transform="translate(113,80)"/>
<path d="M0 0 C0.33 0 0.66 0 1 0 C1 9.9 1 19.8 1 30 C0.67 30 0.34 30 0 30 C0 20.1 0 10.2 0 0 Z " fill="currentColor" opacity="0.62" transform="translate(120,89)"/>
<path d="M0 0 C0.33 0 0.66 0 1 0 C1 9.9 1 19.8 1 30 C0.67 30 0.34 30 0 30 C0 20.1 0 10.2 0 0 Z " fill="currentColor" opacity="0.62" transform="translate(12,49)"/>
<path d="M0 0 C0.33 0 0.66 0 1 0 C1 9.9 1 19.8 1 30 C0.67 30 0.34 30 0 30 C0 20.1 0 10.2 0 0 Z " fill="currentColor" opacity="0.6" transform="translate(12,8)"/>
<path d="M0 0 C7.59 0 15.18 0 23 0 C23 0.33 23 0.66 23 1 C15.41 1 7.82 1 0 1 C0 0.67 0 0.34 0 0 Z " fill="currentColor" opacity="0.64" transform="translate(81,90)"/>
<path d="M0 0 C7.59 0 15.18 0 23 0 C23 0.33 23 0.66 23 1 C15.41 1 7.82 1 0 1 C0 0.67 0 0.34 0 0 Z " fill="currentColor" opacity="0.76" transform="translate(81,84)"/>
<path d="M0 0 C0.66 0.33 1.32 0.66 2 1 C2.29296875 7.0546875 2.29296875 7.0546875 2 9 C1.01 9.66 0.02 10.32 -1 11 C-1.0270043 9.54176788 -1.04639787 8.08339325 -1.0625 6.625 C-1.07410156 5.81289062 -1.08570313 5.00078125 -1.09765625 4.1640625 C-1 2 -1 2 0 0 Z " fill="currentColor" opacity="0.93" transform="translate(14,78)"/>
<path d="M0 0 C5.94 0 11.88 0 18 0 C18 0.33 18 0.66 18 1 C12.06 1 6.12 1 0 1 C0 0.67 0 0.34 0 0 Z " fill="currentColor" opacity="0.5" transform="translate(31,82)"/>
<path d="M0 0 C2.64 0 5.28 0 8 0 C8 0.33 8 0.66 8 1 C5.36 1 2.72 1 0 1 C0 0.67 0 0.34 0 0 Z " fill="currentColor" opacity="0.77" transform="translate(45,76)"/>
<path d="M0 0 C2.64 0 5.28 0 8 0 C8 0.33 8 0.66 8 1 C5.36 1 2.72 1 0 1 C0 0.67 0 0.34 0 0 Z " fill="currentColor" opacity="0.87" transform="translate(27,76)"/>
<path d="M0 0 C2.64 0 5.28 0 8 0 C8 0.33 8 0.66 8 1 C5.36 1 2.72 1 0 1 C0 0.67 0 0.34 0 0 Z " fill="currentColor" opacity="0.67" transform="translate(36,75)"/>
<path d="M0 0 C0.33 0 0.66 0 1 0 C1 2.31 1 4.62 1 7 C0.67 7 0.34 7 0 7 C0 4.69 0 2.38 0 0 Z " fill="currentColor" opacity="0.95" transform="translate(120,71)"/>
<path d="M0 0 C1.98 0 3.96 0 6 0 C6 0.33 6 0.66 6 1 C4.02 1 2.04 1 0 1 C0 0.67 0 0.34 0 0 Z " fill="currentColor" opacity="0.36" transform="translate(104,89)"/>
<path d="M0 0 C0.33 0.66 0.66 1.32 1 2 C1.99 2.33 2.98 2.66 4 3 C2.68 3 1.36 3 0 3 C0 2.01 0 1.02 0 0 Z " fill="currentColor" opacity="0.64" transform="translate(16,83)"/>
<path d="M0 0 C1.98 0 3.96 0 6 0 C6 0.33 6 0.66 6 1 C4.02 1 2.04 1 0 1 C0 0.67 0 0.34 0 0 Z " fill="currentColor" opacity="0.58" transform="translate(75,83)"/>
<path d="M0 0 C1.98 0 3.96 0 6 0 C6 0.33 6 0.66 6 1 C4.02 1 2.04 1 0 1 C0 0.67 0 0.34 0 0 Z " fill="currentColor" opacity="0.44" transform="translate(50,83)"/>
<path d="M0 0 C1.98 0 3.96 0 6 0 C6 0.33 6 0.66 6 1 C4.02 1 2.04 1 0 1 C0 0.67 0 0.34 0 0 Z " fill="currentColor" opacity="0.58" transform="translate(25,83)"/>
<path d="M0 0 C1.65 0 3.3 0 5 0 C5 0.33 5 0.66 5 1 C3.35 1 1.7 1 0 1 C0 0.67 0 0.34 0 0 Z " fill="currentColor" opacity="0.6" transform="translate(75,89)"/>
<path d="M0 0 C1.65 0 3.3 0 5 0 C5 0.33 5 0.66 5 1 C3.35 1 1.7 1 0 1 C0 0.67 0 0.34 0 0 Z " fill="currentColor" opacity="0.5" transform="translate(114,87)"/>
<path d="M0 0 C1.65 0 3.3 0 5 0 C5 0.33 5 0.66 5 1 C3.35 1 1.7 1 0 1 C0 0.67 0 0.34 0 0 Z " fill="currentColor" opacity="0.43" transform="translate(56,84)"/>
<path d="M0 0 C1.65 0 3.3 0 5 0 C5 0.33 5 0.66 5 1 C3.35 1 1.7 1 0 1 C0 0.67 0 0.34 0 0 Z " fill="currentColor" opacity="0.5" transform="translate(20,84)"/>
<path d="M0 0 C1.65 0 3.3 0 5 0 C5 0.33 5 0.66 5 1 C3.35 1 1.7 1 0 1 C0 0.67 0 0.34 0 0 Z " fill="currentColor" opacity="0.95" transform="translate(22,77)"/>
<path d="M0 0 C4 1 4 1 4 1 Z " fill="currentColor" opacity="0.67" transform="translate(71,88)"/>
<path d="M0 0 C4 1 4 1 4 1 Z " fill="currentColor" opacity="0.54" transform="translate(67,87)"/>
<path d="M0 0 C4 1 4 1 4 1 Z " fill="currentColor" opacity="0.94" transform="translate(58,78)"/>
<path d="M0 0 C4 1 4 1 4 1 Z " fill="currentColor" opacity="0.85" transform="translate(18,78)"/>
<path d="M0 0 C4 1 4 1 4 1 Z " fill="currentColor" opacity="0.85" transform="translate(54,77)"/>
<path d="M0 0 C3 1 3 1 3 1 Z " fill="currentColor" opacity="0.5" transform="translate(64,86)"/>
<path d="M0 0 C3 1 3 1 3 1 Z " fill="currentColor" opacity="0.56" transform="translate(61,85)"/>
<path d="M0 0 C3 1 3 1 3 1 Z " fill="currentColor" opacity="0.91" transform="translate(72,82)"/>
<path d="M0 0 C3 1 3 1 3 1 Z " fill="currentColor" opacity="0.8" transform="translate(68,81)"/>
<path d="M0 0 C3 1 3 1 3 1 Z " fill="currentColor" opacity="0.95" transform="translate(65,80)"/>
<path d="M0 0 C3 1 3 1 3 1 Z " fill="currentColor" opacity="0.95" transform="translate(62,79)"/>
<path d="M0 0 C2 1 2 1 2 1 Z " fill="currentColor" opacity="0.58" transform="translate(116,80)"/>
<path d="M0 0 C2 1 2 1 2 1 Z " fill="currentColor" opacity="0.62" transform="translate(16,79)"/>

</svg>
