<svg width="24" height="24" viewBox="0 0 970 808" xmlns="http://www.w3.org/2000/svg" fill="currentColor">
  <!-- Bottom wave bar (darkest) -->
  <path opacity="0.8" d="
M352.130035,531.760498
	C390.467163,533.351562 427.807220,538.658386 464.473907,548.164246
	C487.642426,554.170715 510.468109,561.516235 533.679077,567.338196
	C560.169067,573.982605 587.150146,578.413147 614.436096,579.878479
	C638.681396,581.180542 663.003540,581.992676 687.272766,581.655029
	C713.691895,581.287476 740.077942,578.753418 765.976990,573.347351
	C788.340820,568.679138 810.428467,562.688660 832.644592,557.309265
	C833.747253,557.042236 834.911072,557.027710 836.461792,556.847351
	C836.461792,619.946411 836.461792,682.783936 836.461792,745.996704
	C608.500061,745.996704 380.656738,745.996704 152.147293,745.996704
	C152.147293,744.188843 152.147293,742.408569 152.147293,740.628296
	C152.147293,681.144714 152.194656,621.660950 152.044159,562.177734
	C152.033768,558.068359 153.283676,556.727295 157.171829,555.507690
	C191.045456,544.882568 225.703049,538.051880 260.928528,534.301331
	C291.069092,531.092224 321.338776,529.967957 352.130035,531.760498
z"/>
  <!-- Middle bar with wave (medium) -->
  <path opacity="0.55" d="
M769.202393,509.147034
	C755.182007,511.180359 741.640625,513.772766 727.977112,514.958923
	C706.831360,516.794800 685.596863,518.781982 664.409851,518.678528
	C636.406921,518.541870 608.443237,516.638733 580.634277,512.349243
	C547.198792,507.191956 514.783020,498.394592 482.734009,487.884705
	C457.617523,479.648285 432.015625,473.341705 405.772491,470.030609
	C389.504883,467.978119 373.183472,465.955780 356.824921,465.121704
	C336.898926,464.105652 316.875916,463.493286 296.953674,464.251465
	C266.452423,465.412292 236.153244,469.209351 206.439850,476.443695
	C190.013794,480.442871 173.831604,485.443420 157.537628,489.985962
	C156.301514,490.330566 155.050751,490.622650 153.157593,491.104340
	C153.060379,488.904510 152.915726,487.153259 152.915359,485.402008
	C152.903534,428.580658 152.964951,371.759125 152.798553,314.938263
	C152.784485,310.135010 154.055344,308.840698 158.875336,308.848846
	C245.023605,308.994781 331.172211,308.979523 417.320587,308.874084
	C421.187958,308.869354 423.106964,309.748138 424.526642,313.694275
	C433.745636,339.319305 447.666107,362.223328 465.339264,382.919220
	C487.470947,408.836121 513.945923,429.199097 544.319397,444.436646
	C568.062012,456.347656 593.109802,464.523804 619.339172,468.996643
	C639.561096,472.445038 659.952515,473.966949 680.394775,472.835785
	C716.540466,470.835724 751.364746,462.971130 784.041199,446.949799
	C793.284546,442.417786 802.430664,437.593323 811.200684,432.216644
	C819.824341,426.929596 827.913574,420.771027 836.611877,414.734985
	C836.740540,415.899811 836.982117,417.072784 836.983215,418.246002
	C837.005493,441.241119 836.962463,464.236389 837.045837,487.231262
	C837.056519,490.191498 836.710876,492.260376 833.283447,493.105927
	C812.043884,498.345734 790.841370,503.735748 769.202393,509.147034
z"/>
  <!-- Top bar (medium) -->
  <path opacity="0.55" d="
M173.000183,247.980225
	C165.886215,247.980194 159.272217,247.980194 152.362671,247.980194
	C152.362671,184.477020 152.362671,121.595963 152.362671,58.354492
	C269.083710,58.354492 385.575989,58.354492 502.982330,58.354492
	C473.303955,81.438553 449.885376,108.879013 433.554352,142.044632
	C417.256409,175.143051 409.771973,210.231308 411.078156,247.980240
	C331.605072,247.980240 252.552597,247.980240 173.000183,247.980225
z"/>
  <!-- SCM icon (darkest) -->
  <path opacity="0.9" d="
M606.507324,156.497223
	C583.717163,144.742630 571.206909,120.715889 575.366577,97.118477
	C579.875366,71.540436 598.784302,53.403614 624.107422,49.821857
	C652.337463,45.828918 680.697876,65.878845 686.362549,94.556038
	C692.005005,123.120590 674.872803,151.987030 646.811768,159.833832
	C643.267090,160.825058 642.138428,162.098450 642.156311,165.805145
	C642.315369,198.804291 642.249146,231.804504 642.249390,264.804413
	C642.249390,266.123840 642.249329,267.443268 642.249329,269.268707
	C643.303833,268.799774 644.056335,268.642334 644.577393,268.207489
	C657.823303,257.153748 673.194275,252.336060 690.297363,252.420593
	C704.130371,252.488953 717.965027,252.547394 731.796875,252.406448
	C750.260193,252.218323 763.753723,243.714188 772.978577,227.332718
	C762.705444,223.907913 754.063171,218.567810 747.034363,210.731430
	C730.195251,191.957703 727.964905,163.832947 741.684021,142.635025
	C755.518127,121.259666 781.870728,111.722160 805.920715,119.386612
	C830.318787,127.161980 846.285339,149.774414 845.291077,175.144333
	C844.261230,201.421997 826.567993,222.571854 800.671692,228.239975
	C797.636353,228.904343 796.126892,230.140396 794.780090,233.113281
	C782.626221,259.941315 761.674561,274.068512 732.211304,274.924286
	C716.724182,275.374115 701.210388,274.830383 685.715942,275.124878
	C669.657593,275.430054 654.655090,285.326996 647.512634,300.088501
	C665.934326,306.707916 678.938660,318.970062 684.896790,337.840393
	C688.887817,350.480713 688.415955,363.187958 683.513916,375.540985
	C672.388428,403.576752 645.397217,414.006439 626.347534,411.549500
	C595.920227,407.625122 575.925049,386.834015 573.736084,359.647034
	C571.693542,334.277435 586.855347,306.214203 619.647827,298.539185
	C619.647827,252.958618 619.647827,207.327271 619.647827,161.477676
	C615.447815,159.908340 611.139038,158.298355 606.507324,156.497223
z"/>
  <!-- Hollow centers of SCM circles -->
  <path fill="none" d="
M789.004456,207.247681
	C770.311401,206.113281 757.467896,194.320297 755.326965,176.765488
	C753.449036,161.367294 763.720642,145.583450 779.068848,141.165268
	C792.510498,137.295914 804.595703,140.301315 814.042786,150.789642
	C823.433960,161.215958 825.686768,173.453415 820.165894,186.457489
	C814.497253,199.809616 803.984314,206.636368 789.004456,207.247681
z"/>
  <path fill="none" d="
M640.343628,386.575989
	C621.965149,391.759705 602.258667,380.628998 598.054688,361.236176
	C594.230652,343.595642 604.777344,326.177185 622.072632,321.337585
	C639.090942,316.575500 657.118835,326.023132 663.004150,342.788025
	C668.914856,359.625214 660.925476,377.871399 644.470032,385.070435
	C643.256470,385.601349 641.975403,385.978088 640.343628,386.575989
z"/>
  <path fill="none" d="
M610.488037,132.572968
	C595.361877,119.467873 592.911194,99.968895 604.272522,85.078575
	C614.981079,71.043785 635.033081,67.743645 649.880249,77.572449
	C665.444580,87.875984 669.636414,109.208046 659.136719,124.677986
	C648.264099,140.697418 627.520996,144.182220 610.488037,132.572968
z"/>
</svg>
